<svg width="128" height="128" viewBox="0 0 128 128" xmlns="http://www.w3.org/2000/svg">
  <!-- Background circle -->
  <circle cx="64" cy="64" r="60" fill="#3B82F6" stroke="#1E40AF" stroke-width="2"/>
  
  <!-- Chat bubble -->
  <path d="M32 48 C32 40, 40 32, 48 32 L80 32 C88 32, 96 40, 96 48 L96 64 C96 72, 88 80, 80 80 L52 80 L40 88 L40 80 C34 80, 32 76, 32 72 Z" fill="white"/>
  
  <!-- AI dots -->
  <circle cx="48" cy="56" r="3" fill="#3B82F6"/>
  <circle cx="64" cy="56" r="3" fill="#3B82F6"/>
  <circle cx="80" cy="56" r="3" fill="#3B82F6"/>
  
  <!-- Star for reviews -->
  <path d="M64 90 L67 97 L75 97 L69 102 L71 110 L64 105 L57 110 L59 102 L53 97 L61 97 Z" fill="#FCD34D"/>
</svg> 